<?xml version="1.0" encoding="UTF-8"?>
<svg xmlns="http://www.w3.org/2000/svg" xmlns:xlink="http://www.w3.org/1999/xlink" width="268px" height="153px" viewBox="0 0 267 153" version="1.1">
<g id="surface1">
<path style=" stroke:none;fill-rule:nonzero;fill:rgb(0%,0%,0%);fill-opacity:1;" d="M 88.738281 65.382812 C 88.789062 65.433594 92.09375 66.019531 96.082031 66.683594 C 100.074219 67.371094 103.429688 67.984375 103.53125 68.085938 C 103.835938 68.339844 97.175781 78.285156 96.71875 78.285156 C 96.515625 78.285156 96.261719 78.488281 96.109375 78.71875 C 95.878906 79.152344 95.855469 79.152344 95.398438 78.71875 C 94.785156 78.183594 94.457031 78.183594 94.050781 78.667969 C 93.746094 79.023438 93.667969 79.023438 93.289062 78.667969 C 92.726562 78.15625 92.09375 78.183594 91.8125 78.71875 C 91.585938 79.125 91.535156 79.125 90.898438 78.71875 C 90.542969 78.464844 89.78125 78.285156 89.167969 78.308594 L 88.078125 78.308594 L 89.679688 79.074219 C 90.972656 79.660156 91.40625 79.765625 91.8125 79.535156 C 92.371094 79.226562 92.347656 79.203125 92.753906 80.019531 C 92.980469 80.425781 93.210938 80.554688 93.492188 80.453125 C 93.71875 80.351562 94.050781 80.222656 94.203125 80.171875 C 94.53125 80.019531 95.195312 81.445312 94.941406 81.828125 C 94.480469 82.59375 95.296875 81.777344 98.652344 78.105469 C 100.660156 75.886719 104.117188 72.089844 106.328125 69.691406 L 110.34375 65.28125 L 99.488281 65.28125 C 93.515625 65.28125 88.6875 65.332031 88.738281 65.382812 Z M 88.738281 65.382812 "/>
<path style=" stroke:none;fill-rule:nonzero;fill:rgb(0%,0%,0%);fill-opacity:1;" d="M 148.066406 66.148438 C 147.734375 66.632812 147.609375 67.984375 147.402344 72.316406 C 147.277344 75.378906 147.148438 77.878906 147.097656 77.929688 C 146.972656 78.03125 140.515625 78.539062 139.296875 78.539062 L 138.023438 78.539062 L 138.023438 75.300781 L 140.261719 74.996094 C 141.480469 74.84375 143.183594 74.636719 144.074219 74.5625 C 145.523438 74.410156 145.648438 74.332031 145.648438 73.796875 C 145.648438 73.058594 145.699219 73.082031 141.710938 73.566406 C 137.261719 74.128906 137.695312 74.359375 137.820312 71.527344 C 137.871094 70.203125 138 69.054688 138.074219 68.976562 C 138.152344 68.875 139.90625 68.746094 141.9375 68.671875 C 145.242188 68.542969 145.648438 68.46875 145.648438 68.085938 C 145.648438 67.828125 145.472656 67.550781 145.242188 67.472656 C 145.015625 67.398438 142.957031 67.320312 140.667969 67.320312 L 136.5 67.320312 L 136.5 79.253906 L 133.269531 77.417969 C 131.464844 76.398438 129.230469 75.121094 128.265625 74.585938 C 126.664062 73.71875 126.535156 73.59375 126.96875 73.285156 C 127.222656 73.109375 128.1875 72.699219 129.101562 72.394531 C 131.542969 71.605469 133.753906 70.53125 134.289062 69.921875 C 135 69.128906 134.71875 68.542969 133.320312 67.828125 C 132.230469 67.269531 131.71875 67.191406 129.507812 67.191406 C 127.652344 67.191406 126.738281 67.292969 126.152344 67.601562 C 125.441406 67.984375 125.316406 67.984375 124.984375 67.625 C 124.449219 67.117188 123.714844 67.421875 123.917969 68.058594 C 124.042969 68.492188 123.890625 68.570312 122.339844 68.746094 C 121.402344 68.851562 118.78125 68.800781 116.570312 68.644531 C 114.335938 68.492188 112.402344 68.417969 112.300781 68.492188 C 112.199219 68.570312 112.097656 68.902344 112.097656 69.234375 C 112.097656 69.792969 112.199219 69.820312 114.386719 69.996094 C 116.34375 70.152344 116.671875 70.253906 116.570312 70.609375 C 116.519531 70.839844 116.394531 72.574219 116.292969 74.460938 C 116.214844 76.347656 116.089844 78.386719 115.988281 79 L 115.859375 80.09375 L 116.824219 80.019531 L 117.792969 79.941406 L 117.84375 78.285156 C 117.894531 75.402344 118.25 71.296875 118.476562 70.6875 C 118.679688 70.152344 118.832031 70.125 121.375 70.125 L 124.042969 70.125 L 124.070312 74.257812 C 124.09375 79.125 124.195312 79.6875 125.0625 79.6875 C 125.695312 79.6875 125.695312 79.636719 125.773438 77.316406 C 125.824219 75.988281 125.949219 74.96875 126.101562 74.96875 C 126.585938 74.96875 128.847656 76.246094 131.441406 77.980469 C 135.203125 80.476562 134.972656 80.402344 137.085938 80.09375 C 138.101562 79.96875 140.566406 79.714844 142.601562 79.558594 C 144.632812 79.40625 146.488281 79.226562 146.742188 79.175781 C 147.074219 79.125 147.175781 79.203125 147.074219 79.457031 C 146.894531 79.941406 147.480469 80.171875 148.320312 79.96875 C 148.929688 79.816406 148.953125 79.738281 148.953125 77.75 C 148.953125 75.734375 148.953125 75.710938 149.539062 75.886719 C 150.453125 76.167969 152.359375 77.1875 154.0625 78.285156 C 155.792969 79.40625 157.316406 79.96875 157.953125 79.738281 C 159.199219 79.253906 157.699219 78.082031 152.921875 75.734375 L 148.851562 73.773438 L 149.945312 72.980469 C 150.53125 72.546875 152.15625 71.605469 153.53125 70.890625 C 156.429688 69.410156 157.597656 68.519531 157.597656 67.777344 C 157.597656 66.886719 156.25 67.398438 152.613281 69.613281 C 150.785156 70.738281 149.207031 71.65625 149.132812 71.65625 C 149.03125 71.65625 149.003906 71.347656 149.082031 70.941406 C 149.132812 70.558594 149.257812 69.179688 149.335938 67.882812 C 149.464844 65.664062 149.464844 65.535156 148.980469 65.535156 C 148.699219 65.535156 148.269531 65.816406 148.066406 66.148438 Z M 132.535156 68.492188 C 133.90625 69.027344 131.1875 70.738281 127.296875 71.78125 C 125.898438 72.164062 125.644531 71.988281 125.417969 70.585938 C 125.238281 69.539062 125.773438 68.976562 127.246094 68.621094 C 128.390625 68.367188 131.949219 68.261719 132.535156 68.492188 Z M 132.535156 68.492188 "/>
<path style=" stroke:none;fill-rule:nonzero;fill:rgb(0%,0%,0%);fill-opacity:1;" d="M 177.167969 67.015625 C 177.167969 67.675781 177.09375 67.726562 176.304688 67.625 C 175.847656 67.574219 173.8125 67.777344 171.804688 68.058594 C 166.519531 68.851562 166.390625 68.851562 166.085938 68.644531 C 165.910156 68.542969 165.757812 68.238281 165.707031 67.957031 C 165.628906 67.601562 165.402344 67.449219 164.96875 67.449219 C 164.433594 67.449219 164.308594 67.574219 164.257812 68.339844 C 164.207031 68.824219 164.410156 70.480469 164.714844 71.988281 L 165.273438 74.765625 L 164.585938 75.480469 L 163.875 76.21875 L 164.5625 76.527344 C 165.171875 76.804688 165.222656 76.960938 165.222656 78.4375 C 165.222656 79.660156 165.324219 80.042969 165.65625 80.171875 C 166.339844 80.453125 166.59375 79.890625 166.695312 77.878906 C 166.824219 75.554688 166.542969 75.734375 171.550781 74.996094 C 175.441406 74.433594 176.152344 74.179688 176.152344 73.492188 C 176.152344 73.082031 175.976562 73.058594 174.449219 73.210938 C 173.484375 73.3125 171.804688 73.59375 170.6875 73.796875 C 169.570312 74.027344 168.171875 74.203125 167.613281 74.203125 C 166.644531 74.203125 166.542969 74.152344 166.390625 73.414062 C 166.085938 71.832031 166.214844 70.40625 166.695312 70.152344 C 167.382812 69.792969 170.355469 69.410156 173.96875 69.207031 L 177.246094 69.027344 L 177.117188 74.257812 L 177.015625 79.484375 L 180.472656 79.660156 C 182.378906 79.765625 185.050781 79.816406 186.421875 79.789062 C 187.769531 79.765625 188.964844 79.816406 189.039062 79.917969 C 189.371094 80.25 190.132812 80.070312 190.132812 79.636719 C 190.132812 79.304688 190.210938 79.28125 190.4375 79.507812 C 191.277344 80.351562 192.472656 79.585938 194.25 76.933594 L 195.242188 75.453125 L 197.785156 77.773438 C 199.15625 79.023438 200.402344 80.070312 200.53125 80.070312 C 200.65625 80.070312 200.886719 79.917969 201.039062 79.714844 C 201.496094 79.152344 200.988281 78.183594 199.640625 77.113281 C 198.980469 76.550781 197.9375 75.660156 197.328125 75.097656 L 196.234375 74.078125 L 198.648438 71.195312 L 201.089844 68.316406 L 200.503906 67.828125 C 200.046875 67.472656 199.84375 67.421875 199.640625 67.652344 C 199.488281 67.828125 198.417969 69.078125 197.277344 70.457031 C 195.800781 72.191406 195.066406 72.878906 194.859375 72.699219 C 194.707031 72.574219 193.84375 71.527344 192.929688 70.40625 C 191.429688 68.519531 191.199219 68.339844 190.386719 68.339844 C 188.835938 68.339844 188.835938 68.339844 188.683594 73.515625 L 188.53125 78.285156 L 184.566406 78.285156 C 182.378906 78.285156 180.167969 78.207031 179.660156 78.132812 L 178.695312 77.953125 L 178.695312 66.300781 L 177.933594 66.300781 C 177.269531 66.300781 177.167969 66.402344 177.167969 67.015625 Z M 192.140625 71.78125 C 193.132812 73.03125 193.945312 74.128906 193.945312 74.203125 C 193.945312 74.308594 191.097656 77.824219 190.234375 78.769531 C 190.183594 78.820312 190.132812 76.730469 190.132812 74.078125 C 190.132812 71.425781 190.183594 69.335938 190.234375 69.386719 C 190.285156 69.4375 191.148438 70.507812 192.140625 71.78125 Z M 192.140625 71.78125 "/>
<path style=" stroke:none;fill-rule:nonzero;fill:rgb(0%,0%,0%);fill-opacity:1;" d="M 92.472656 70.277344 C 93.921875 71.09375 94.203125 71.171875 95.347656 71.015625 C 96.058594 70.914062 96.566406 70.761719 96.464844 70.6875 C 96.285156 70.507812 91.8125 69.386719 91.253906 69.386719 C 91.050781 69.359375 91.585938 69.769531 92.472656 70.277344 Z M 92.472656 70.277344 "/>
</g>
</svg>
